<svg width="1025" height="990" viewBox="0 0 1025 990" fill="none" xmlns="http://www.w3.org/2000/svg">
<g clip-path="url(#clip0_50_3382)">
<path style="mix-blend-mode:hard-light" opacity="0.35" d="M408.227 817C304.73 817 206.581 778.502 130.378 707.672C50.4479 633.372 4.24294 532.411 0.27957 423.362C-3.69117 314.322 35.0438 210.26 109.361 130.348C183.678 50.4361 284.67 4.24931 393.736 0.279504C502.825 -3.6903 606.889 35.0356 686.812 109.342C851.808 262.714 861.245 521.694 707.837 686.659C633.521 766.57 532.528 812.772 423.462 816.742C418.379 816.926 413.295 817.014 408.234 817.014L408.227 817ZM408.875 101.999C405.074 101.999 401.265 102.073 397.442 102.206C315.611 105.189 239.835 139.842 184.075 199.808C128.316 259.761 99.2534 337.838 102.23 419.65C105.206 501.462 139.874 577.22 199.848 632.96C259.822 688.706 337.859 717.762 419.741 714.794C501.573 711.811 577.348 677.158 633.108 617.191C748.208 493.42 741.128 299.113 617.328 184.04C560.161 130.9 486.515 101.999 408.868 101.999H408.875Z" fill="url(#paint0_linear_50_3382)"/>
</g>
<g clip-path="url(#clip1_50_3382)">
<g style="mix-blend-mode:overlay" opacity="0.7">
<g opacity="0.8">
<g opacity="0.8">
<path d="M588.079 988.95C348.149 988.95 152.949 793.75 152.949 554.15C152.949 314.55 348.149 119.36 588.079 119.36C828.009 119.36 1023.21 314.22 1023.21 554.16C1023.21 794.1 828.009 988.96 588.079 988.96V988.95ZM186.499 723.6C214.289 789.34 257.669 847.29 313.239 892.37C368.819 937.44 434.559 968.28 504.709 981.84C574.859 995.4 647.379 991.67 715.839 971C784.299 949.99 846.309 912.71 896.809 862.22C978.139 780.55 1024.23 669.73 1024.23 553.83C1024.23 437.93 978.139 327.45 896.469 245.44C814.799 164.09 703.639 118 588.079 118C472.519 118 361.359 164.09 279.689 245.76C218.349 307.1 176.669 385.38 160.059 470.45C143.449 555.51 152.599 643.62 186.489 723.6H186.499Z" fill="white"/>
<path d="M588.08 927.269C382.37 927.269 214.96 759.859 214.96 554.149C214.96 348.439 382.38 180.689 588.08 180.689C793.78 180.689 961.2 348.099 961.2 554.149C961.2 760.199 793.79 927.269 588.08 927.269ZM323.41 818.489C358.32 853.399 399.32 880.849 444.73 899.479C490.14 918.459 538.94 927.949 588.08 927.949C637.22 927.949 686.02 918.119 731.43 899.479C776.84 880.839 818.19 853.389 852.75 818.489C905.28 766.299 940.86 699.539 955.09 627.019C969.66 554.499 962.21 479.259 933.74 410.809C905.27 342.349 857.49 284.069 796.15 242.719C734.47 201.709 662.29 179.689 588.07 179.689C513.85 179.689 441.67 201.719 379.99 242.719C318.31 283.729 270.53 342.349 242.06 410.809C213.59 479.269 206.48 554.499 220.71 627.019C235.28 699.539 271.2 766.299 323.39 818.489H323.41Z" fill="white"/>
<path d="M588.079 894.061C400.339 894.061 247.829 741.561 247.829 553.811C247.829 366.061 400.339 213.571 588.079 213.571C775.819 213.571 928.329 366.071 928.329 553.821C928.329 741.571 775.829 894.071 588.079 894.071V894.061ZM346.789 795.441C378.649 827.301 416.259 852.371 457.609 869.321C498.949 886.601 543.349 895.411 588.079 895.411C632.809 895.411 677.209 886.601 718.549 869.321C759.889 852.041 797.509 826.961 829.369 795.441C877.149 747.661 909.689 687.001 922.899 620.571C936.119 554.491 929.339 485.691 903.579 423.341C877.819 360.981 833.769 307.781 777.849 270.161C721.589 232.541 655.849 212.551 588.069 212.551C520.289 212.551 454.549 232.541 398.289 270.161C342.029 307.781 298.319 360.981 272.559 423.341C246.799 485.701 240.029 554.151 253.239 620.571C266.459 686.651 298.989 747.651 346.769 795.441H346.789Z" fill="white"/>
<path d="M588.08 866.27C415.92 866.27 275.62 726.31 275.62 554.15C275.62 381.99 415.59 242.03 588.08 242.03C760.57 242.03 900.54 381.99 900.54 554.15C900.54 726.31 760.24 866.27 588.08 866.27ZM366.45 775.45C395.59 804.59 430.16 827.64 468.12 843.23C506.08 858.82 546.74 866.95 588.09 866.95C629.44 866.95 670.1 858.82 708.06 843.23C746.02 827.64 780.58 804.26 809.73 775.45C853.45 731.73 883.27 675.82 895.47 615.16C907.67 554.5 901.23 491.47 877.51 434.19C853.79 376.92 813.46 328.12 761.95 293.55C710.44 258.98 649.78 240.68 587.76 240.68C525.74 240.68 465.08 258.98 413.57 293.55C362.06 328.12 321.73 376.92 298.01 434.19C274.29 491.46 268.19 554.5 280.05 615.16C292.93 675.82 322.75 731.74 366.47 775.45H366.45Z" fill="white"/>
<path d="M588.079 839.16C430.839 839.16 302.739 711.06 302.739 553.82C302.739 396.58 430.839 268.47 588.079 268.47C745.319 268.47 873.419 396.57 873.419 553.82C873.419 711.07 745.319 839.16 588.079 839.16ZM385.759 756.47C432.529 803.24 494.199 832.38 560.289 838.82C626.369 845.26 692.459 828.65 747.359 792.05C802.599 755.11 842.929 700.55 862.239 637.18C881.559 573.81 878.169 505.69 852.749 444.69C827.329 383.35 781.579 332.86 723.289 301.68C664.999 270.5 597.559 260.34 532.499 273.21C467.429 286.09 409.139 321.33 367.119 372.5C325.099 423.67 302.049 487.72 302.049 554.14C302.049 591.76 309.169 629.03 323.739 663.6C337.969 698.51 358.979 730.02 385.759 756.46V756.47Z" fill="white"/>
<path d="M588.079 815.769C443.709 815.769 326.119 698.509 326.119 554.149C326.119 409.789 443.709 292.529 588.079 292.529C732.449 292.529 850.039 410.119 850.039 554.149C850.039 698.179 732.449 815.769 588.079 815.769ZM402.369 739.859C445.409 782.899 501.999 809.669 562.659 815.429C623.319 821.529 683.979 806.279 734.479 772.389C784.969 738.499 822.249 688.349 839.869 630.059C857.489 572.109 854.439 509.749 831.059 453.499C807.679 397.239 765.649 350.819 712.109 322.349C658.569 293.539 596.549 284.389 536.899 296.259C477.259 308.119 423.709 340.319 385.079 387.419C346.449 434.529 325.439 493.489 325.439 554.149C325.439 588.719 332.219 622.939 345.429 654.799C358.309 686.659 377.619 715.459 402.359 739.859H402.369Z" fill="white"/>
<path d="M588.08 791.369C457.27 791.369 350.52 684.959 350.52 554.149C350.52 423.339 456.93 316.929 588.08 316.929C719.23 316.929 825.64 423.339 825.64 554.149C825.64 684.959 718.89 791.369 588.08 791.369ZM419.31 722.579C458.28 761.549 509.79 785.949 564.69 791.369C619.59 796.789 674.83 782.899 720.58 752.399C766.33 721.899 800.22 676.149 816.15 623.279C832.08 570.409 829.37 513.819 808.36 462.989C787.35 412.159 749.05 370.129 700.59 344.039C651.79 317.949 595.87 309.809 541.65 320.319C487.43 330.829 438.97 360.309 403.72 403.009C368.81 445.709 349.5 499.249 349.5 554.149C349.5 585.329 355.6 616.509 367.46 645.309C379.66 674.119 397.28 700.549 419.31 722.579Z" fill="white"/>
<path d="M588.08 771.72C467.77 771.72 370.17 674.12 370.17 553.81C370.17 433.5 467.77 335.9 588.08 335.9C708.39 335.9 805.99 433.5 805.99 553.81C805.99 674.12 708.39 771.72 588.08 771.72ZM588.08 773.08C708.72 773.08 807 674.8 807 554.16C807 433.52 708.72 335.24 588.08 335.24C467.44 335.24 369.16 433.52 369.16 554.16C369.16 674.8 467.44 773.08 588.08 773.08Z" fill="white"/>
</g>
<path d="M984.58 554.151V554.491H997.46V551.781H984.58V554.151ZM997.12 562.961V560.251L984.24 559.911V562.621L997.12 562.961ZM984.58 546.021L997.12 545.681V542.971L984.24 543.311C984.58 544.331 984.58 545.001 984.58 546.021ZM996.78 571.781V569.071L983.9 568.731V571.441L996.78 571.781ZM984.24 537.891L997.12 537.211V534.501L984.24 535.181V537.891ZM996.44 580.251V577.541L983.56 576.861V579.571L996.44 580.251ZM983.9 529.421L996.78 528.741C996.78 527.721 996.78 526.711 996.44 526.031L983.56 527.051C983.9 527.391 983.9 528.411 983.9 529.421ZM995.76 589.061C995.76 588.041 995.76 587.031 996.1 586.351L983.22 585.331C983.22 586.351 983.22 587.021 982.88 588.041L995.76 589.061ZM983.22 520.941L996.1 519.921C996.1 518.901 996.1 517.891 995.76 517.211L983.22 518.231V520.941ZM995.08 597.531C995.08 596.511 995.42 595.501 995.42 594.821L982.88 593.461L982.54 596.171L995.08 597.531ZM982.54 512.811L995.08 511.451L994.74 508.741L982.2 510.101C982.2 510.781 982.54 511.791 982.54 512.811ZM994.06 606.001L994.4 603.291L981.86 601.601C981.86 602.621 981.52 603.291 981.52 604.311L994.06 606.001ZM981.52 504.331L994.06 502.641C994.06 501.621 993.72 500.611 993.72 499.931L981.18 501.621C981.18 502.641 981.52 503.311 981.52 504.331ZM993.04 614.811C993.04 613.791 993.38 612.781 993.38 612.101L980.84 610.411C980.84 611.431 980.5 612.101 980.5 613.121L993.04 614.811ZM980.5 496.201L993.04 494.171C993.04 493.151 992.7 492.141 992.7 491.461L980.16 493.491C980.16 494.171 980.16 495.181 980.5 496.201ZM991.68 623.281C991.68 622.261 992.02 621.251 992.02 620.571L979.48 618.541C979.48 619.561 979.14 620.231 979.14 621.251L991.68 623.281ZM979.14 487.721L991.68 485.691C991.68 484.671 991.34 483.661 991.34 482.981L978.8 485.011L979.14 487.721ZM989.98 631.751C990.32 630.731 990.32 629.721 990.66 629.041L978.12 626.671C977.78 627.691 977.78 628.361 977.44 629.381L989.98 631.751ZM977.78 479.591L990.32 477.221L989.64 474.511L977.1 476.881C977.44 477.901 977.44 478.571 977.78 479.591ZM988.29 640.221C988.63 639.201 988.63 638.191 988.97 637.511L976.43 634.801C976.09 635.821 976.09 636.491 975.75 637.511L988.29 640.221ZM976.09 471.451L988.63 468.741C988.29 467.721 988.29 466.711 987.95 466.031L975.41 468.741L976.09 471.451ZM986.26 648.691L986.94 645.981L974.4 643.271C974.06 644.291 974.06 644.961 973.72 645.981L986.26 648.691ZM974.06 463.321L986.6 460.271C986.26 459.251 986.26 458.241 985.92 457.561L973.38 460.611C973.72 461.291 974.06 462.301 974.06 463.321ZM984.23 657.161C984.57 656.141 984.57 655.471 984.91 654.451L972.37 651.401C972.03 652.421 972.03 653.091 971.69 654.111L984.23 657.161ZM972.03 455.181L984.23 452.131C983.89 451.111 983.89 450.101 983.55 449.421L971.35 452.811L972.03 455.181ZM982.2 665.291C982.54 664.271 982.88 663.601 982.88 662.581L970.68 659.191L970 661.901L982.2 665.291ZM970 447.051L982.2 443.661C981.86 442.641 981.52 441.971 981.52 440.951L969.32 444.341C969.66 445.361 969.66 446.031 970 447.051ZM979.49 673.431C979.83 672.411 980.17 671.741 980.17 670.721L967.97 666.991L967.29 669.701L979.49 673.431ZM967.63 438.921L979.83 435.191C979.49 434.171 979.15 433.501 979.15 432.481L966.95 436.211L967.63 438.921ZM977.12 681.901L978.14 679.191L965.94 675.461C965.6 676.481 965.26 677.151 964.92 678.171L977.12 681.901ZM965.26 431.121L977.46 427.051C977.12 426.031 976.78 425.361 976.44 424.341L964.24 428.411C964.58 429.091 964.92 430.101 965.26 431.121ZM974.41 690.031L975.43 687.321L963.23 683.251L962.21 685.961L974.41 690.031ZM962.55 422.991L974.75 418.921C974.41 417.901 974.07 417.231 973.73 416.211L961.87 420.621L962.55 422.991ZM971.36 698.171L972.38 695.461L960.52 691.051C960.18 692.071 959.84 692.741 959.5 693.761L971.36 698.171ZM959.84 415.201L971.7 410.791C971.36 409.771 971.02 409.101 970.68 408.081L958.82 412.491L959.84 415.201ZM967.97 706.311C968.31 705.291 968.65 704.621 968.99 703.601L957.13 698.861C956.79 699.881 956.45 700.551 956.11 701.571L967.97 706.311ZM956.79 407.411L968.65 402.671C968.31 401.651 967.97 400.981 967.63 399.961L955.77 404.701L956.79 407.411ZM964.92 714.101L965.94 711.391L954.08 706.311L953.06 709.021L964.92 714.101ZM953.4 399.611L965.26 394.531C964.92 393.511 964.58 392.841 964.24 391.821L952.38 396.901L953.4 399.611ZM961.19 722.231C961.53 721.211 961.87 720.541 962.21 719.521L950.69 714.441C950.35 715.121 950.01 716.131 949.67 717.151L961.19 722.231ZM950.01 392.151L961.53 387.071C961.19 386.051 960.85 385.381 960.51 384.361L948.99 389.781C949.33 390.121 949.67 391.141 950.01 392.151ZM957.8 730.021C958.14 729.001 958.48 728.331 959.16 727.311L947.64 721.891C947.3 722.571 946.96 723.581 946.28 724.601L957.8 730.021ZM946.62 384.351L958.14 378.931L956.78 376.221L945.26 381.641L946.62 384.351ZM953.74 737.811C954.08 736.791 954.76 736.121 955.1 735.101L943.58 729.341C943.24 730.021 942.9 731.031 942.22 731.711L953.74 737.811ZM942.9 376.891L954.08 371.131C953.74 370.111 953.06 369.441 952.72 368.421L941.2 374.181L942.89 376.891H942.9ZM950.02 745.601C950.36 744.921 951.04 743.911 951.38 742.891L940.2 737.131L938.84 739.501L950.02 745.601ZM939.18 369.431L950.36 363.331C950.02 362.651 949.34 361.641 949 360.621L937.82 366.721L939.18 369.431ZM945.62 753.051C945.96 752.371 946.64 751.361 946.98 750.341L935.8 744.241L934.44 746.611L945.62 753.051ZM935.11 362.311L946.29 355.871C945.95 355.191 945.27 354.181 944.93 353.501L933.75 359.601C934.43 360.621 934.77 361.291 935.11 362.311ZM941.55 760.511C941.89 759.831 942.57 758.821 942.91 758.141L931.73 751.701L930.37 754.071L941.55 760.511ZM931.04 354.861L942.22 348.421L940.86 346.051L930.02 352.491L931.04 354.861ZM936.8 767.971L938.16 765.601L927.32 758.821C926.98 759.501 926.3 760.511 925.96 761.191L936.8 767.971ZM926.97 347.751L937.81 340.971C937.47 340.291 936.79 339.281 936.45 338.601L925.61 345.381L926.97 347.751ZM932.39 775.431L934.08 773.061L923.24 766.281C922.9 766.961 922.22 767.971 921.88 768.651L932.39 775.431ZM922.56 340.631L933.4 333.851C932.72 333.171 932.38 332.161 931.71 331.481L920.87 338.601C921.55 339.281 921.89 339.961 922.56 340.631ZM927.64 782.541L929.33 780.171L918.82 773.051L917.13 775.421L927.64 782.541ZM917.81 333.851L928.32 326.731C927.64 326.051 927.3 325.041 926.63 324.361L916.12 331.481C916.8 332.161 917.48 332.841 917.81 333.851ZM922.55 789.661L924.24 787.291L913.73 780.171L912.04 782.541L922.55 789.661ZM913.06 326.741L923.57 319.281L921.88 316.911L911.37 324.371C912.05 325.391 912.73 326.061 913.06 326.741ZM917.47 796.781L919.16 794.411L908.65 786.951L906.96 789.321L917.47 796.781ZM908.32 319.961L918.83 312.501L917.14 310.131L906.97 317.591L908.33 319.961H908.32ZM912.39 803.561C913.07 802.881 913.41 802.201 914.08 801.191L903.91 793.401L902.22 795.771L912.39 803.561ZM903.24 313.191L913.41 305.401L911.72 303.031L901.55 310.821L903.24 313.191ZM906.97 810.341L908.66 807.971L898.49 800.181L896.8 802.211L906.97 810.341ZM898.16 306.751L907.99 298.961L906.3 296.591L896.47 304.721L898.16 306.751ZM901.55 817.121L903.24 814.751L893.41 806.621L891.72 808.651L901.55 817.121ZM892.74 300.311L902.57 292.181C901.89 291.501 901.21 290.821 900.88 290.151L891.05 298.281L892.74 300.311ZM895.79 823.561L897.82 821.531L887.99 813.061L886.3 815.091L895.79 823.561ZM887.32 293.881L896.81 285.411C896.13 284.731 895.45 284.051 894.78 283.381L885.29 291.851C886.31 292.531 886.65 293.211 887.32 293.881ZM890.03 830.001L892.06 827.971L882.57 819.501L880.54 821.531L890.03 830.001ZM881.9 287.781L891.39 279.311L889.36 277.281L879.87 285.751L881.9 287.781ZM884.27 836.441L886.3 834.411L877.15 825.601C876.47 826.281 875.79 826.961 875.12 827.631L884.27 836.441ZM876.14 281.681L885.29 272.871C884.61 272.191 883.93 271.511 883.26 270.841L874.11 279.651L876.14 281.681ZM878.17 842.541L880.2 840.511L871.05 831.701L869.02 833.731L878.17 842.541ZM870.38 275.581L879.53 266.771L877.5 264.741L868.35 273.891L870.38 275.581ZM872.07 848.641L874.1 846.611L865.29 837.461L863.26 839.491L872.07 848.641ZM864.28 269.481L873.43 260.331L871.4 258.301L862.59 267.451L864.28 269.481ZM865.97 854.401L868 852.371L859.19 843.221L857.16 845.251L865.97 854.401ZM858.18 263.721L866.99 254.231L864.96 252.201L856.49 261.691L858.18 263.721ZM859.54 860.171L861.57 858.141L853.1 848.651L851.07 850.681L859.54 860.171ZM852.08 258.301L860.55 248.811L858.52 246.781L850.05 256.271L852.08 258.301ZM852.76 865.931L855.13 864.241L846.66 854.411L844.63 856.101L852.76 865.931ZM845.64 252.541L853.77 242.711L851.74 240.681L843.61 250.511L845.64 252.541ZM846.32 871.691L848.69 870.001L840.56 860.171L838.53 861.861L846.32 871.691ZM839.2 247.461L847.33 237.631L844.96 235.941L836.83 245.771C837.85 246.111 838.86 246.791 839.2 247.461ZM839.54 876.781L841.91 875.091L834.12 864.921L832.09 866.611L839.55 876.781H839.54ZM832.76 242.041L840.55 231.871L838.18 230.181L830.39 240.351C831.41 241.031 832.08 241.371 832.76 242.041ZM832.76 882.201L835.13 880.511L827.34 870.341L824.97 872.031L832.76 882.201ZM826.32 236.951L834.11 226.781L831.74 225.091L824.28 235.261L826.31 236.951H826.32ZM825.64 887.281L828.01 885.591L820.55 875.081L818.18 876.771L825.64 887.281ZM819.54 231.871L827 221.361L824.63 219.671L817.17 230.181L819.54 231.871ZM818.52 892.031L820.89 890.671L813.77 880.161L811.4 881.851L818.52 892.021V892.031ZM812.76 227.131L819.88 216.621L817.51 214.931L810.39 225.441L812.76 227.131ZM811.4 896.781L813.77 895.091L806.65 884.581L804.28 886.271L811.4 896.781ZM805.64 222.391L812.76 211.881L810.39 210.191L803.61 221.031L805.64 222.391ZM804.28 901.521L806.65 899.831L799.87 888.991L797.5 890.351L804.28 901.531V901.521ZM798.52 217.981L805.3 207.141C804.62 206.461 803.61 206.121 802.93 205.451L796.15 216.291L798.52 217.981ZM796.83 905.931C797.51 905.591 798.52 904.911 799.2 904.571L792.76 893.731L790.39 895.091L796.83 905.931ZM791.41 213.581L798.19 202.741L795.82 201.381L789.38 212.221L791.41 213.581ZM789.38 910.341C790.06 910.001 791.07 909.321 791.75 908.981L785.31 897.801L782.94 899.161L789.38 910.341ZM784.3 209.521L790.74 198.341L788.37 196.981L782.27 208.161L784.3 209.521ZM781.93 914.411C782.95 914.071 783.62 913.391 784.64 913.051L778.54 901.871C777.86 902.211 776.85 902.891 776.17 903.231L781.93 914.411ZM776.85 205.451L782.95 194.271L780.24 192.911L774.14 204.091L776.85 205.451ZM774.14 918.471L776.85 917.111L771.09 905.931L768.72 907.291L774.14 918.471ZM769.4 201.381L775.16 190.201L772.45 188.841L766.69 200.361L769.4 201.381ZM766.35 922.541L769.06 921.181L763.3 909.661L760.93 911.021L766.35 922.541ZM761.94 197.661L767.7 186.141L764.99 184.781L759.57 196.301L761.94 197.661ZM758.89 925.931L761.6 924.571L756.18 913.051L753.81 914.071L758.89 925.931ZM754.48 193.931L759.9 182.411C758.88 182.071 758.21 181.731 757.19 181.051L751.77 192.571C752.79 193.251 753.46 193.591 754.48 193.931ZM750.75 929.661C751.77 929.321 752.44 928.981 753.46 928.641L748.38 917.121L745.67 918.141L750.75 929.661ZM746.68 190.541L752.1 179.021L749.39 178.001L744.31 189.521L746.68 190.541ZM742.95 933.051L745.66 932.031L740.58 920.171L737.87 921.191L742.95 933.051ZM738.88 187.151L743.96 175.631L741.25 174.611L736.51 186.471L738.88 187.151ZM734.81 936.101L737.52 935.081L732.78 923.221L730.07 924.241L734.81 936.101ZM731.08 184.101L735.82 172.241L733.11 171.221L728.7 183.081L731.07 184.101H731.08ZM726.67 939.151L729.38 938.131L724.97 926.271L722.26 927.291L726.67 939.151ZM723.28 181.051L727.69 169.191L724.98 168.171L720.57 180.031L723.28 181.051ZM718.54 941.861L721.25 940.841L717.18 928.641L714.47 929.661L718.54 941.861ZM715.49 178.341L719.56 166.141L716.85 165.121L712.78 177.321C713.8 178.001 714.47 178.001 715.49 178.341ZM710.41 944.571L713.12 943.551L709.39 931.351L706.68 932.371L710.41 944.571ZM707.36 175.971L711.09 163.771L708.38 162.751L704.65 174.951L707.36 175.971ZM702.28 946.941L704.99 946.261L701.26 934.061L698.55 934.741L702.28 946.941ZM699.57 173.591L703.3 161.391L700.59 160.711L697.2 172.911L699.57 173.591ZM693.81 949.311L696.52 948.631L693.13 936.431L690.42 937.111L693.81 949.311ZM691.44 171.221L694.83 159.021L692.12 158.341L688.73 170.541L691.44 171.221ZM685.34 951.681L688.05 951.001L685 938.801L682.29 939.481L685.34 951.681ZM683.31 169.181L686.36 156.641L683.65 155.961L680.6 168.501L683.31 169.181ZM676.87 953.371L679.58 952.691L676.87 940.151L674.16 940.831L676.87 953.371ZM675.18 167.151L677.89 154.611L675.18 153.931L672.47 166.471L675.18 167.151ZM668.4 955.071L671.11 954.391L668.4 941.851L665.69 942.531L668.4 955.071ZM667.04 165.461L669.41 152.921L666.7 152.241L664.33 164.781L667.04 165.461ZM659.92 956.771L662.63 956.091L660.26 943.551L657.55 943.891L659.92 956.771ZM658.9 163.771L661.27 151.231L658.56 150.891L656.53 163.431L658.9 163.771ZM651.44 958.131L654.15 957.791L652.12 945.251L649.41 945.591L651.44 958.131ZM650.42 162.421L652.45 149.881L649.74 149.541L647.71 162.081L650.42 162.421ZM642.96 959.491L645.67 959.151L643.98 946.611L641.27 946.951L642.96 959.491ZM642.28 161.411L643.97 148.531L641.26 148.191L639.57 160.731L642.28 161.411ZM634.49 960.511L637.2 960.171L635.84 947.631C634.82 947.631 634.15 947.971 633.13 947.971L634.49 960.511ZM633.81 160.391L635.17 147.851C634.15 147.851 633.14 147.511 632.46 147.511L631.1 160.051L633.81 160.391ZM625.68 961.521C626.7 961.521 627.71 961.181 628.39 961.181L627.03 948.641L624.32 948.981L625.68 961.521ZM625.68 159.371L627.04 146.831L624.33 146.491L623.31 159.031L625.68 159.371ZM617.21 962.201L619.92 961.861L618.9 948.981L616.19 949.321L617.21 962.201ZM617.21 158.691L618.23 145.811L615.52 145.471L614.84 158.351L617.21 158.691ZM608.74 962.541H611.45L610.77 949.661H608.06L608.74 962.541ZM608.74 158.021L609.42 145.141H606.71L606.03 158.021H608.74ZM599.93 962.881H602.64L602.3 950.001H599.59L599.93 962.881ZM600.61 157.681L600.95 145.141H598.24L597.9 158.021C598.58 157.681 599.59 157.681 600.61 157.681ZM591.46 963.221H594.17L593.83 950.341H591.12L591.46 963.221ZM592.14 157.681V144.801H589.43V157.681H592.14ZM588.07 963.221V950.341H585.36V963.221H588.07ZM580.95 157.681H583.66V144.801H580.95V157.681ZM579.59 963.221L579.93 950.341H577.22L576.88 963.221H579.59ZM572.47 158.021H575.18L574.84 145.141H572.13L572.47 158.021ZM570.78 962.881L571.46 950.001H568.75L568.07 962.881H570.78ZM564.34 158.361H567.05L566.37 145.481H563.32L564.34 158.361ZM562.31 962.541L562.99 949.661L560.28 949.321L559.26 962.201L562.31 962.541ZM555.87 159.031L558.58 158.691L557.56 145.811L554.85 146.151L555.87 159.031ZM553.5 961.861L554.52 948.981L551.81 948.641L550.79 961.181L553.5 961.861ZM547.74 159.711L550.45 159.371L549.09 146.831L546.38 147.171L547.74 159.711ZM545.03 960.841L546.39 948.301C545.37 948.301 544.7 947.961 543.68 947.961L542.32 960.501L545.03 960.841ZM539.27 160.721L541.98 160.381L540.62 147.841L537.91 148.181L539.27 160.721ZM536.56 960.161L538.25 947.621L535.54 947.281L533.85 959.821L536.56 960.161ZM531.14 161.741L533.85 161.401L532.16 148.861L529.45 149.201L531.14 161.741ZM527.75 958.811L529.78 946.271L527.07 945.931L525.04 958.471C526.06 958.471 527.07 958.471 527.75 958.811ZM522.67 163.101L525.38 162.761L523.35 150.221L520.64 150.561L522.67 163.101ZM519.28 957.461L521.31 944.921L518.6 944.581L516.23 957.121L519.28 957.461ZM514.54 164.461L517.25 164.121L514.88 151.581L512.17 152.261L514.54 164.461ZM510.81 955.771L513.18 943.231L510.47 942.551L508.1 955.091L510.81 955.771ZM506.4 166.161L509.11 165.481L506.74 152.941L504.03 153.621L506.4 166.161ZM502.33 954.081L505.04 941.541L502.33 940.861L499.62 953.401L502.33 954.081ZM497.92 167.861L500.63 167.181L497.92 154.641L495.21 155.321L497.92 167.861ZM493.85 952.391L496.9 939.851L494.19 939.171L491.14 951.711L493.85 952.391ZM489.78 169.891L492.49 169.211L489.44 156.671L486.73 157.351L489.78 169.891ZM485.37 950.351L488.42 938.151L485.71 937.471L482.32 949.671L485.37 950.351ZM481.98 171.921L484.69 171.241L481.3 159.041L478.59 159.721L481.98 171.921ZM477.24 947.981L480.63 935.781L477.92 935.101L474.53 947.301L477.24 947.981ZM473.85 174.301L476.56 173.621L472.83 161.421L470.12 162.101L473.85 174.301ZM468.77 945.611L472.5 933.411L469.79 932.731L466.06 944.931L468.77 945.611ZM465.72 177.011L468.43 175.991L464.7 163.791L461.99 164.811L465.72 177.011ZM460.64 942.901L464.71 930.701L462 929.681L457.93 941.881L460.64 942.901ZM457.93 179.721L460.64 178.701L456.57 166.501L453.86 167.521L457.93 179.721ZM452.51 940.191L456.58 928.331L453.87 927.311L449.46 939.171L452.51 940.191ZM450.14 182.431L452.85 181.411L448.44 169.551L445.73 170.571L450.14 182.431ZM444.38 937.141L448.79 925.281L446.08 924.261L441.67 936.121L444.38 937.141ZM442.35 185.481L445.06 184.461L440.32 172.601L437.61 173.621L442.35 185.481ZM436.25 934.091L440.99 922.231L438.28 921.211L433.54 933.071L436.25 934.091ZM434.56 188.531L437.27 187.511L432.53 175.651L429.82 176.671L434.56 188.531ZM428.12 930.701L433.2 918.841L430.49 917.821L425.41 929.341L428.12 930.701ZM426.76 191.921L429.47 190.901L424.39 179.041L421.68 180.061L426.76 191.921ZM420.32 927.311L425.4 915.791L422.69 914.771L417.27 926.291L420.32 927.311ZM419.3 195.311L421.67 194.291L416.25 182.771L413.54 184.131L419.3 195.311ZM412.18 923.581L417.6 912.061L415.23 910.701L409.81 922.221L412.18 923.581ZM411.84 199.031L414.55 197.671L408.79 186.151L406.08 187.511L411.84 199.031ZM404.72 919.851L410.48 908.331L408.11 906.971L402.35 918.151L404.72 919.841V919.851ZM404.38 202.761L406.75 201.401L400.99 190.221L398.28 191.581L404.38 202.761ZM396.92 915.781L403.02 904.601C402.34 904.261 401.33 903.581 400.65 903.241L394.55 914.421L396.92 915.781ZM396.92 206.481L399.29 205.121L393.19 193.941L390.82 195.301L396.92 206.481ZM389.13 911.711L395.23 900.531C394.55 900.191 393.54 899.511 392.86 899.171L386.42 910.351L389.13 911.711ZM389.81 210.891L392.18 209.531L385.74 198.351L383.37 199.711L389.81 210.891ZM381.68 907.651L388.12 896.811L385.75 895.451L379.31 906.291L381.68 907.651ZM382.36 214.961L384.73 213.601L378.29 202.761L375.92 204.121L382.36 214.961ZM374.23 902.911L381.01 892.071L378.64 890.711L371.86 901.551L374.23 902.911ZM375.59 219.371L377.96 218.011L371.18 207.171L368.81 208.861L375.59 219.371ZM367.12 898.501L373.9 887.661L371.53 886.301L364.41 897.141L367.12 898.501ZM368.48 224.111L370.85 222.421L363.73 211.911L361.36 213.601L368.48 224.111ZM359.67 893.761L366.79 883.251L364.42 881.561L357.3 892.071L359.67 893.761ZM361.7 228.861C362.38 228.181 363.06 227.841 364.07 227.171L356.95 216.661C356.27 217.341 355.26 217.681 354.58 218.351L361.7 228.861ZM352.55 888.681L360.01 878.171L357.64 876.481L350.18 886.991L352.55 888.681ZM354.58 233.611L356.95 231.921L349.49 221.411C348.81 222.091 347.8 222.431 347.12 223.101L354.58 233.611ZM345.77 883.601L353.23 873.431L350.86 871.741L343.07 881.911C344.09 882.591 344.76 883.271 345.78 883.601H345.77ZM348.14 238.351L350.51 236.661L342.72 226.491L340.35 228.181L348.14 238.351ZM338.65 878.511L346.44 868.341L344.07 866.651L336.28 876.821L338.65 878.511ZM341.36 243.771L343.39 242.081L335.6 231.911L333.23 233.601L341.36 243.771ZM331.87 873.091L340 863.261L337.97 861.571L329.84 871.401L331.87 873.091ZM334.92 248.861L336.95 247.171L328.82 237.341L326.45 239.031L334.92 248.861ZM325.43 867.671L333.56 857.841L331.53 856.151L323.4 865.981C323.74 866.321 324.42 867.001 325.43 867.671ZM328.48 254.281L330.51 252.591L322.38 242.761L320.35 244.791L328.48 254.281ZM318.65 861.911L327.12 852.421C326.44 851.741 325.76 851.061 325.09 850.731L316.62 860.221C317.3 860.901 317.98 861.581 318.65 861.911ZM322.38 260.041L324.41 258.351L315.94 248.861L313.91 250.891L322.38 260.041ZM312.21 856.151L320.68 846.661L318.65 844.631L309.84 854.121L312.21 856.151ZM316.28 265.471L318.31 263.441L309.5 254.291L307.47 256.321L316.28 265.471ZM305.77 850.391L314.58 841.241L312.55 839.211L303.74 848.361L305.77 850.391ZM310.18 271.231L312.21 269.201L303.4 260.051L301.37 262.081L310.18 271.231ZM299.67 844.291L308.82 835.141L306.79 833.111L297.64 842.261C298.32 842.941 299 843.621 299.67 844.291ZM304.08 277.331L306.11 275.301L296.96 266.491L294.93 268.521L304.08 277.331ZM293.57 838.531L302.72 829.721C302.04 829.041 301.36 828.361 300.69 827.691L291.54 836.501C292.22 836.841 292.9 837.521 293.57 838.531ZM298.31 283.431L300.34 281.401L291.19 272.591L289.16 274.621L298.31 283.431ZM287.8 832.091L297.29 823.281L295.26 821.251L285.77 829.721C286.45 830.741 287.13 831.411 287.8 832.091ZM292.88 289.531C293.56 288.851 294.24 288.171 294.91 287.501L285.42 279.031C284.74 279.711 284.06 280.391 283.39 281.061L292.88 289.531ZM282.04 825.651L291.53 817.181C290.85 816.501 290.17 815.821 289.84 815.151L280.35 823.621L282.04 825.651ZM287.12 295.971L288.81 293.941L279.32 285.471L277.29 287.501L287.12 295.971ZM276.28 819.221L286.11 811.091C285.43 810.411 284.75 809.731 284.42 809.061L274.59 817.191L276.28 819.221ZM282.04 302.071C282.72 301.391 283.06 300.711 283.73 300.041L273.9 291.911L272.21 294.281L282.04 302.071ZM270.86 812.441L280.69 804.311L279 802.281L269.17 810.411L270.86 812.441ZM276.62 308.851C277.3 308.171 277.64 307.491 278.31 306.821L268.48 298.691L266.79 301.061L276.62 308.851ZM265.44 805.661L275.61 797.871L273.92 795.841L263.75 803.631C264.09 804.311 264.77 804.991 265.44 805.661ZM271.54 315.291C272.22 314.611 272.56 313.931 273.23 312.921L263.06 305.131L261.37 307.501L271.54 315.291ZM260.02 798.891L270.19 791.101C269.51 790.421 269.17 789.741 268.5 788.731L258.33 796.191L260.02 798.901V798.891ZM266.46 322.071L268.15 319.701L257.98 312.241C257.3 312.921 256.96 313.931 256.29 314.611L266.46 322.071ZM254.94 791.771L265.45 784.311C264.77 783.631 264.43 782.951 263.76 781.941L253.25 789.401L254.94 791.771ZM261.72 328.851L263.41 326.481L252.9 319.021C252.22 319.701 251.88 320.711 251.21 321.391L261.72 328.851ZM250.2 785.001L260.71 777.881L259.02 775.511L248.51 782.631L250.2 785.001ZM256.98 335.971C257.32 335.291 258 334.281 258.67 333.601L248.16 326.481C247.48 327.161 247.14 328.171 246.47 328.851L256.98 335.971ZM245.12 777.541L255.63 770.421L254.27 768.051L243.43 774.831C244.45 776.191 244.79 776.861 245.12 777.541ZM252.24 343.081C252.58 342.401 253.26 341.391 253.6 340.711L242.76 333.931C242.08 334.611 241.74 335.621 241.07 336.301L252.25 343.081H252.24ZM240.72 770.421L251.56 763.641C251.22 762.961 250.54 761.951 250.2 761.271L239.36 768.051C239.7 768.731 240.04 769.741 240.72 770.421ZM248.18 349.861C248.52 349.181 249.2 348.171 249.54 347.491L238.7 340.711C238.36 341.391 237.68 342.401 237.34 343.081L248.18 349.861ZM236.32 762.971L247.16 756.531L245.8 754.161L234.96 760.601L236.32 762.971ZM243.78 357.321C244.12 356.641 244.8 355.631 245.14 354.951L233.96 348.511C233.62 349.191 232.94 350.201 232.6 350.881L243.78 357.321ZM231.92 755.521L243.1 749.081C242.76 748.401 242.08 747.391 241.74 746.711L230.56 752.811C230.9 753.831 231.58 754.841 231.92 755.521ZM239.71 364.441C240.05 363.761 240.73 362.751 241.07 362.071L229.89 355.971C229.55 356.651 228.87 357.661 228.53 358.341L239.71 364.441ZM227.85 748.061L239.03 741.961L237.67 739.591L226.49 745.691L227.85 748.061ZM235.64 371.891C235.98 371.211 236.66 370.201 237 369.521L225.82 363.421L224.46 366.131L235.64 371.891ZM223.78 740.601L235.3 734.841C234.96 734.161 234.62 733.151 233.94 732.471L222.42 738.231L223.78 740.601ZM231.91 379.341L233.27 376.971L221.75 371.211L220.39 373.921L231.91 379.341ZM219.71 732.801L231.23 727.381L229.87 725.011L218.35 730.431L219.71 732.801ZM228.52 387.131C228.86 386.111 229.2 385.441 229.88 384.421L218.36 379.001C218.02 380.021 217.68 380.691 217 381.711L228.52 387.131ZM215.98 725.001L227.5 719.581L226.48 716.871L214.96 722.291C215.3 723.311 215.64 723.981 215.98 725.001ZM224.79 394.581L225.81 391.871L214.29 386.791L213.27 389.501L224.79 394.581ZM212.59 717.201L224.11 712.121C223.77 711.441 223.43 710.431 223.09 709.411L211.23 714.491L212.59 717.201ZM221.74 402.371L222.76 399.661L210.9 394.581C210.56 395.601 210.22 396.271 209.88 397.291L221.74 402.371ZM209.2 709.071L221.06 704.331L220.04 701.621L208.18 706.361L209.2 709.071ZM218.35 410.171C218.69 409.151 219.03 408.481 219.37 407.461L207.51 402.721L206.49 405.431L218.35 410.171ZM206.15 701.281L218.01 696.541C217.67 695.521 217.33 694.851 216.99 693.831L205.13 698.241C205.47 699.261 205.81 700.271 206.15 701.291V701.281ZM215.64 417.971C215.98 416.951 216.32 416.281 216.66 415.261L204.8 410.851L203.78 413.561L215.64 417.971ZM203.1 693.151L214.96 688.741L213.94 686.031L201.74 690.441L203.1 693.151ZM212.59 426.111C212.93 425.091 213.27 424.421 213.61 423.401L201.41 419.331L200.39 422.041L212.59 426.111ZM200.05 685.021L212.25 680.951C211.91 679.931 211.57 679.261 211.23 678.241L199.03 682.311C199.71 682.991 200.05 684.001 200.05 685.021ZM210.22 433.901C210.56 432.881 210.9 432.211 211.24 431.191L199.04 427.461C198.7 428.481 198.36 429.151 198.02 430.171L210.22 433.901ZM197.68 676.881L209.88 673.151L209.2 670.441L197 674.171C197 674.851 197.34 675.861 197.68 676.881ZM207.51 442.031C207.85 441.011 208.19 440.341 208.19 439.321L195.99 435.591C195.65 436.611 195.31 437.281 195.31 438.301L207.51 442.031ZM194.97 668.411L207.17 665.021C206.83 664.001 206.49 663.331 206.49 662.311L194.29 665.701C194.63 666.721 194.97 667.391 194.97 668.411ZM205.48 450.171C205.82 449.151 205.82 448.481 206.16 447.461L193.96 444.071C193.62 445.091 193.28 445.761 193.28 446.781L205.48 450.171ZM192.6 660.281L204.8 656.891C204.46 655.871 204.46 655.201 204.12 654.181L191.92 657.231L192.6 660.281ZM203.44 458.301C203.78 457.281 203.78 456.611 204.12 455.591L191.92 452.541C191.58 453.561 191.58 454.571 191.24 455.251L203.44 458.301ZM190.56 651.811L203.1 648.761C202.76 647.741 202.76 647.071 202.42 646.051L189.88 649.101C190.22 649.781 190.22 650.791 190.56 651.811ZM201.4 466.441L202.08 463.731L189.54 460.681C189.2 461.701 189.2 462.711 188.86 463.391L201.4 466.441ZM188.52 643.341L201.06 640.631C200.72 639.611 200.72 638.941 200.38 637.921L187.84 640.631C188.18 641.651 188.52 642.321 188.52 643.341ZM199.7 474.571C200.04 473.551 200.04 472.881 200.38 471.861L187.84 469.151L187.16 471.861L199.7 474.571ZM186.82 634.861L199.36 632.491C199.02 631.471 199.02 630.801 198.68 629.781L186.14 632.151C186.48 633.171 186.82 633.841 186.82 634.861ZM198 482.701L198.34 479.991L185.8 477.621C185.46 478.641 185.46 479.651 185.12 480.331L198 482.701ZM185.12 626.391L197.66 624.021C197.66 623.001 197.32 622.331 197.32 621.311L184.78 623.341C184.78 624.701 185.12 625.371 185.12 626.391ZM196.64 491.171C196.64 490.151 196.98 489.481 196.98 488.461L184.44 486.431C184.44 487.451 184.1 488.461 184.1 489.141L196.64 491.171ZM183.76 617.911L196.3 615.881C196.3 614.861 195.96 614.191 195.96 613.171L183.42 615.201L183.76 617.911ZM195.28 499.301L195.62 496.591L183.08 494.901C183.08 495.921 182.74 496.931 182.74 497.611L195.28 499.301ZM182.4 609.441L194.94 607.751C194.94 606.731 194.6 606.061 194.6 605.041L182.06 606.731C182.4 607.411 182.4 608.421 182.4 609.441ZM194.26 507.431C194.26 506.411 194.6 505.741 194.6 504.721L182.06 503.031L181.72 505.741L194.26 507.431ZM181.38 600.621L193.92 599.261C193.92 598.241 193.58 597.571 193.58 596.551L181.04 597.911L181.38 600.621ZM193.24 515.901L193.58 513.191L181.04 511.831C181.04 512.851 180.7 513.861 180.7 514.541L193.24 515.901ZM180.7 592.151L193.58 590.791C193.58 589.771 193.58 589.101 193.24 588.081L180.36 589.101C180.36 590.121 180.36 591.131 180.7 592.151ZM192.56 524.031C192.56 523.011 192.56 522.341 192.9 521.321L180.02 520.301C180.02 521.321 180.02 522.331 179.68 523.011L192.56 524.031ZM180.02 583.671L192.9 582.651L192.56 579.941L179.68 580.621C179.68 581.641 179.68 582.651 180.02 583.671ZM192.22 532.501V529.791L179.34 529.111V531.821L192.22 532.501ZM179.34 574.861L192.22 574.181V571.471L179.34 572.151V574.861ZM191.88 540.971V538.261L179 537.921V540.631L191.88 540.971ZM179 566.391L191.88 566.051V563.341L179 563.681V566.391ZM191.54 549.111V546.401L178.66 546.061V549.111H191.54ZM179 557.581H191.88V554.871H179C178.66 555.891 178.66 556.901 179 557.581Z" fill="white"/>
</g>
</g>
</g>
<g clip-path="url(#clip2_50_3382)">
<path opacity="0.11" d="M397.296 638.629L334.36 598.431C343.006 607.236 352.738 615.202 363.563 622.119C374.388 629.036 385.696 634.503 397.296 638.629ZM424.848 645.749L316.235 576.383C314.317 573.579 312.474 570.725 310.746 567.82L434.885 647.104C431.531 646.767 428.183 646.309 424.848 645.749ZM452.692 648L302.348 551.977C301.306 549.663 300.296 547.336 299.343 545.003L460.265 647.777C457.755 647.905 455.24 647.975 452.692 648ZM474.52 646.411L294.49 531.429C293.835 529.382 293.257 527.335 292.705 525.256L480.841 645.419C478.732 645.8 476.623 646.131 474.527 646.417L474.52 646.411ZM493.089 642.736L289.897 512.961C289.541 511.079 289.217 509.197 288.937 507.315L498.578 641.21C496.768 641.757 494.932 642.266 493.089 642.736ZM509.359 637.618L287.578 495.974C287.419 494.219 287.305 492.445 287.203 490.678L514.282 635.711C512.669 636.385 511.023 637.033 509.359 637.625V637.618ZM523.932 631.394L287 480.067C286.987 478.408 287.051 476.742 287.114 475.083L528.366 629.169C526.899 629.932 525.412 630.689 523.932 631.394ZM537.063 624.249L287.832 465.064C287.978 463.506 288.162 461.942 288.366 460.372L541.053 621.763C539.725 622.621 538.397 623.447 537.057 624.249H537.063ZM548.975 616.346L289.89 450.874C290.176 449.38 290.462 447.886 290.78 446.385L552.615 613.612C551.401 614.541 550.194 615.45 548.968 616.346H548.975ZM559.781 607.713L293.041 437.351C293.435 435.927 293.848 434.51 294.293 433.092L563.084 604.763C561.991 605.767 560.899 606.746 559.781 607.713ZM569.596 598.45L297.196 424.471C297.679 423.104 298.2 421.757 298.74 420.422L572.581 595.322C571.609 596.377 570.618 597.426 569.596 598.45ZM578.489 588.596L302.278 412.182C302.869 410.885 303.498 409.607 304.127 408.33L581.17 585.277C580.287 586.39 579.411 587.509 578.489 588.602V588.596ZM586.475 578.189L308.243 400.484C308.942 399.251 309.654 398.005 310.391 396.797L588.876 574.667C588.101 575.849 587.282 577.032 586.475 578.189ZM593.59 567.197L315.104 389.333C315.879 388.151 316.699 386.968 317.506 385.811L595.737 563.516C595.038 564.743 594.327 565.995 593.59 567.203V567.197ZM599.86 555.664L322.817 378.729C323.7 377.617 324.576 376.498 325.497 375.404L601.709 551.818C601.118 553.115 600.489 554.393 599.86 555.67V555.664ZM605.247 543.572L331.406 368.678C332.378 367.623 333.369 366.574 334.391 365.55L606.785 539.529C606.302 540.896 605.781 542.243 605.241 543.579L605.247 543.572ZM609.7 530.908L340.903 359.237C341.996 358.233 343.088 357.254 344.206 356.287L610.946 526.649C610.552 528.073 610.139 529.49 609.694 530.908H609.7ZM613.214 517.615L351.366 350.388C352.579 349.459 353.805 348.563 355.031 347.667L614.116 513.139C613.83 514.633 613.525 516.121 613.207 517.621L613.214 517.615ZM615.628 503.622L362.928 342.237C364.256 341.379 365.583 340.553 366.924 339.752L616.155 498.936C616.009 500.494 615.825 502.058 615.621 503.628L615.628 503.622ZM616.892 488.923L375.633 334.844C377.101 334.081 378.568 333.311 380.068 332.618L617 483.945C617 485.592 616.949 487.27 616.885 488.93L616.892 488.923ZM616.784 473.322L389.698 328.295C391.331 327.634 392.976 326.986 394.622 326.382L616.403 468.033C616.581 469.8 616.695 471.574 616.777 473.328L616.784 473.322ZM615.056 456.685L405.402 322.79C407.213 322.243 409.049 321.734 410.891 321.264L614.084 451.039C614.44 452.921 614.764 454.803 615.043 456.685H615.056ZM611.289 438.744L423.146 318.587C425.255 318.206 427.345 317.863 429.46 317.589L609.491 432.577C610.126 434.611 610.723 436.671 611.276 438.75L611.289 438.744ZM604.663 419.004L443.741 316.235C446.251 316.108 448.766 316.038 451.295 316L601.639 412.023C602.7 414.35 603.71 416.677 604.656 419.01L604.663 419.004ZM593.26 396.187L469.114 316.909C472.468 317.246 475.816 317.704 479.151 318.263L587.764 387.63C589.683 390.433 591.525 393.288 593.253 396.193L593.26 396.187ZM569.646 365.569L506.71 325.384C518.31 329.51 529.618 334.977 540.443 341.894C551.268 348.811 561 356.777 569.646 365.582V365.569Z" fill="white"/>
</g>
<defs>
<linearGradient id="paint0_linear_50_3382" x1="739.539" y1="648.063" x2="77.8249" y2="168.536" gradientUnits="userSpaceOnUse">
<stop offset="0.25" stop-color="#662482"/>
<stop offset="1" stop-color="#F616F1"/>
</linearGradient>
<clipPath id="clip0_50_3382">
<rect width="817" height="817" fill="white"/>
</clipPath>
<clipPath id="clip1_50_3382">
<rect width="872.23" height="871.82" fill="white" transform="translate(152 118)"/>
</clipPath>
<clipPath id="clip2_50_3382">
<rect width="330" height="332" fill="white" transform="translate(287 316)"/>
</clipPath>
</defs>
</svg>
