<svg width="407" height="107" viewBox="0 0 407 107" fill="none" xmlns="http://www.w3.org/2000/svg">
<path d="M150.106 73.7827C150.106 72.9184 149.818 72.1982 149.379 71.478C148.946 70.7577 148.219 70.3256 147.491 69.8934C146.764 69.6053 145.9 69.4613 145.028 69.6053C144.157 69.7494 143.437 70.1815 142.853 70.7577C142.277 71.3339 141.838 72.0542 141.694 72.9184C141.55 73.7827 141.55 74.503 141.982 75.3673C142.27 76.0875 142.853 76.8077 143.573 77.2399C144.301 77.672 145.021 77.9601 145.893 77.9601C147.052 77.9601 148.068 77.528 148.788 76.8077C149.659 75.9434 150.092 74.9351 150.092 73.7827H150.106Z" fill="white"/>
<path d="M8.49855 73.7827C8.49855 72.9184 8.21046 72.1982 7.77111 71.478C7.33897 70.7577 6.61152 70.3256 5.88408 69.8934C5.15664 69.6053 4.29235 69.4613 3.42086 69.6053C2.54937 69.7494 1.82913 70.1815 1.24574 70.7577C0.669547 71.3339 0.2302 72.0542 0.0861521 72.9184C-0.0578958 73.7827 -0.0578974 74.503 0.374246 75.3673C0.662342 76.0875 1.24574 76.8077 1.96598 77.2399C2.69342 77.672 3.41366 77.9601 4.28515 77.9601C4.86134 77.9601 5.44473 77.8161 5.87688 77.672C6.45307 77.528 6.89242 77.0958 7.18051 76.8077C7.46861 76.5196 7.90795 75.9435 8.052 75.5113C8.48415 74.7911 8.48415 74.3589 8.48415 73.7827H8.49855Z" fill="white"/>
<path d="M56.0415 51.5912C56.0415 50.7269 55.7534 50.0067 55.3141 49.2864C54.8819 48.5662 54.1545 48.1341 53.427 47.7019C52.6996 47.4138 51.8353 47.2698 50.9638 47.4138C50.0923 47.5579 49.3721 47.99 48.7887 48.5662C48.2125 49.1424 47.7732 49.8626 47.6291 50.7269C47.4851 51.5912 47.4851 52.3114 47.9172 53.1757C48.2053 53.896 48.7887 54.6162 49.5089 55.0484C50.2364 55.4805 50.9566 55.7686 51.8281 55.7686C52.9877 55.7686 54.0032 55.3364 54.7235 54.6162C55.595 53.7519 56.0271 52.7436 56.0271 51.5912H56.0415Z" fill="white"/>
<path fill-rule="evenodd" clip-rule="evenodd" d="M395.636 0H241.85L206.774 34.73H125.323L86.7681 73.4933H4.4375V74.0695H87.0562L125.611 35.3061H207.07L242.145 0.576191H395.348" fill="white"/>
<path fill-rule="evenodd" clip-rule="evenodd" d="M303.164 106.063L248.375 51.3027H51.8359V51.8789H248.087L302.868 106.639" fill="white"/>
<path fill-rule="evenodd" clip-rule="evenodd" d="M407.001 93.5224H198.081L167.932 63.6973H97.0605V64.4175H167.644L197.793 94.2498H407.001" fill="white"/>
<path fill-rule="evenodd" clip-rule="evenodd" d="M284.897 34.5859L246.055 73.4933H145.898V74.0695H246.343L285.186 35.3062" fill="white"/>
<path fill-rule="evenodd" clip-rule="evenodd" d="M255.333 0H228.374L193.154 34.73L193.586 35.1621L228.662 0.576191H255.333V0Z" fill="white"/>
</svg>
