<svg width="480" height="123" viewBox="0 0 480 123" fill="none" xmlns="http://www.w3.org/2000/svg">
<path d="M126.895 74.7827C126.895 73.9184 127.183 73.1982 127.622 72.478C128.055 71.7577 128.782 71.3256 129.509 70.8934C130.237 70.6053 131.101 70.4613 131.973 70.6053C132.844 70.7494 133.564 71.1815 134.148 71.7577C134.724 72.3339 135.163 73.0542 135.307 73.9184C135.451 74.7827 135.451 75.503 135.019 76.3673C134.731 77.0875 134.148 77.8077 133.428 78.2399C132.7 78.672 131.98 78.9601 131.108 78.9601C129.949 78.9601 128.933 78.528 128.213 77.8077C127.342 76.9434 126.909 75.9351 126.909 74.7827H126.895Z" fill="#713CD3"/>
<path d="M268.502 74.7827C268.502 73.9184 268.791 73.1982 269.23 72.478C269.662 71.7577 270.389 71.3256 271.117 70.8934C271.844 70.6053 272.709 70.4613 273.58 70.6053C274.452 70.7494 275.172 71.1815 275.755 71.7577C276.331 72.3339 276.771 73.0542 276.915 73.9184C277.059 74.7827 277.059 75.503 276.627 76.3673C276.339 77.0875 275.755 77.8077 275.035 78.2399C274.308 78.672 273.587 78.9601 272.716 78.9601C272.14 78.9601 271.556 78.8161 271.124 78.672C270.548 78.528 270.109 78.0958 269.82 77.8077C269.532 77.5196 269.093 76.9435 268.949 76.5113C268.517 75.7911 268.517 75.3589 268.517 74.7827H268.502Z" fill="#713CD3"/>
<path d="M220.959 52.5912C220.959 51.7269 221.248 51.0067 221.687 50.2864C222.119 49.5662 222.846 49.1341 223.574 48.7019C224.301 48.4138 225.166 48.2698 226.037 48.4138C226.909 48.5579 227.629 48.99 228.212 49.5662C228.788 50.1424 229.228 50.8626 229.372 51.7269C229.516 52.5912 229.516 53.3114 229.084 54.1757C228.796 54.896 228.212 55.6162 227.492 56.0484C226.765 56.4805 226.044 56.7686 225.173 56.7686C224.013 56.7686 222.998 56.3364 222.277 55.6162C221.406 54.7519 220.974 53.7436 220.974 52.5912H220.959Z" fill="#713CD3"/>
<path fill-rule="evenodd" clip-rule="evenodd" d="M-118.635 1H35.1509L70.2265 35.73H151.678L190.233 74.4933H272.563V75.0695H189.945L151.39 36.3061H69.9313L34.8556 1.57619H-118.347" fill="#713CD3"/>
<path fill-rule="evenodd" clip-rule="evenodd" d="M-26.1626 107.063L28.626 52.3027H225.165V52.8789H28.9142L-25.8673 107.639" fill="#713CD3"/>
<path fill-rule="evenodd" clip-rule="evenodd" d="M-130 94.5224H78.9196L109.069 64.6973H179.94V65.4175H109.357L79.2077 95.2498H-130" fill="#713CD3"/>
<path fill-rule="evenodd" clip-rule="evenodd" d="M-7.89651 35.5859L30.946 74.4933H131.103V75.0695H30.6579L-8.1846 36.3062" fill="#713CD3"/>
<path fill-rule="evenodd" clip-rule="evenodd" d="M21.6684 1H48.627L83.8467 35.73L83.4146 36.1621L48.3389 1.57619H21.6684V1Z" fill="#713CD3"/>
<g opacity="0.2">
<path fill-rule="evenodd" clip-rule="evenodd" d="M473.093 111.004C476.064 110.522 478.394 107.711 478.394 104.739V104.337C478.394 101.366 475.984 98.5543 473.012 98.1527L459.438 96.0643C459.438 95.5021 459.277 94.9398 459.197 94.3776L471.807 88.8354C474.538 87.6306 476.145 84.3374 475.342 81.4458V81.0442C474.458 78.1527 471.406 76.0643 468.434 76.4659L454.779 77.992C454.538 77.4298 454.378 76.9479 454.137 76.3856L464.9 67.7912C467.229 65.9438 467.872 62.3294 466.426 59.7591L466.185 59.3575C464.659 56.7872 461.205 55.5824 458.474 56.6266L445.623 61.6065C445.301 61.1246 444.9 60.6426 444.579 60.241L452.691 49.1567C454.458 46.747 454.137 43.0523 452.048 40.9639L451.727 40.6426C449.639 38.5543 445.944 38.233 443.534 40.0001L432.45 48.1125C431.968 47.7912 431.566 47.3896 431.085 47.0683L436.064 34.2169C437.109 31.486 435.904 27.9519 433.334 26.5061L432.932 26.2651C430.362 24.8193 426.747 25.4619 424.9 27.7912L416.305 38.5543C415.824 38.3133 415.261 38.0723 414.699 37.9117L416.225 24.2571C416.546 21.2852 414.458 18.233 411.566 17.5101H411.165C408.273 16.6266 404.98 18.233 403.775 20.9639L398.233 33.5744L396.546 33.3334L394.458 19.7591C393.976 16.7872 391.165 14.4579 388.273 14.4579H387.872C384.9 14.4579 382.089 16.8675 381.607 19.7591L379.518 33.3334C378.795 33.4137 378.073 33.494 377.35 33.6547L371.727 21.1246C370.522 18.3936 367.149 16.8675 364.338 17.5904H363.936C361.044 18.474 359.036 21.5262 359.358 24.498L360.964 38.1527C360.402 38.3936 359.92 38.5543 359.358 38.7952L350.683 28.1125C348.836 25.7832 345.141 25.1406 342.651 26.6667L342.249 26.9077C339.679 28.4338 338.474 31.8876 339.599 34.6185L344.659 47.3896C344.177 47.7109 343.775 48.1125 343.293 48.4338L332.209 40.4017C329.799 38.6346 326.105 38.9559 324.016 41.0442L323.695 41.3655C321.607 43.4539 321.366 47.1487 323.133 49.5583L331.326 60.6426C331.004 61.1246 330.683 61.5262 330.281 62.0081L317.43 57.1085C314.619 56.0643 311.165 57.2691 309.719 59.8394L309.478 60.241C308.032 62.8113 308.675 66.4258 311.004 68.2732L321.767 76.8675C321.526 77.4298 321.285 77.9117 321.125 78.474L307.47 77.0282C304.498 76.7069 301.446 78.7952 300.723 81.6868V82.0884C299.84 84.98 301.446 88.2732 304.177 89.478L316.787 94.9398C316.787 95.5021 316.627 96.0643 316.546 96.6266L302.972 98.7952C300 99.2772 297.671 102.088 297.671 105.06V105.542C297.671 108.514 300.081 111.325 303.052 111.727L316.627 113.735C316.627 114.297 316.787 114.859 316.868 115.422L304.338 121.044C301.607 122.249 300.081 125.623 300.803 128.434V128.835C301.687 131.727 304.739 133.735 307.711 133.414L321.366 131.888C321.607 132.45 321.767 132.932 322.008 133.494L311.326 142.169C308.996 144.016 308.354 147.631 309.88 150.201L310.121 150.602C311.647 153.173 315.101 154.378 317.832 153.253L330.603 148.193C330.924 148.675 331.326 149.076 331.647 149.558L323.615 160.643C321.848 163.052 322.169 166.747 324.257 168.835L324.579 169.157C326.667 171.245 330.362 171.486 332.771 169.719L343.856 161.526C344.338 161.847 344.739 162.169 345.221 162.57L340.321 175.422C339.277 178.233 340.482 181.687 343.052 183.133L343.454 183.374C346.024 184.819 349.639 184.177 351.486 181.847L360.081 171.084C360.643 171.325 361.125 171.566 361.687 171.727L360.241 185.382C359.92 188.353 362.008 191.406 364.9 192.129H365.301C368.193 193.012 371.486 191.406 372.691 188.675L378.153 176.064C378.715 176.064 379.277 176.225 379.84 176.305L382.008 189.88C382.49 192.851 385.301 195.181 388.273 195.181H388.675C391.647 195.181 394.458 192.771 394.86 189.799L396.948 176.225C397.51 176.225 398.073 176.064 398.635 175.984L404.177 188.594C405.382 191.325 408.675 192.932 411.566 192.129H411.968C414.86 191.245 416.948 188.193 416.627 185.221L415.101 171.566C415.663 171.325 416.145 171.165 416.707 170.924L425.301 181.607C427.149 183.936 430.844 184.578 433.334 183.133L433.735 182.892C436.305 181.366 437.51 177.912 436.466 175.181L431.486 162.41C431.968 162.088 432.45 161.687 432.852 161.366L443.936 169.478C446.346 171.245 450.04 170.924 452.129 168.835L452.45 168.514C454.538 166.426 454.779 162.731 453.093 160.321L444.98 149.237C445.301 148.755 445.703 148.353 446.024 147.872L458.876 152.851C461.687 153.896 465.141 152.691 466.587 150.121L466.828 149.719C468.273 147.149 467.631 143.534 465.301 141.687L454.538 133.092C454.779 132.53 455.02 132.048 455.181 131.486L468.836 132.932C471.807 133.253 474.86 131.165 475.583 128.273V127.872C476.466 124.98 474.86 121.687 472.129 120.482L459.518 114.94L459.759 113.253L473.334 111.165L473.093 111.004ZM339.679 117.912C346.988 144.578 374.538 160.241 401.205 152.932L401.125 152.851C427.791 145.542 443.454 118.072 436.145 91.4057C428.836 64.739 401.366 49.0764 374.699 56.3856C348.032 63.6948 332.37 91.245 339.679 117.912Z" fill="#9C91C5"/>
<path fill-rule="evenodd" clip-rule="evenodd" d="M298.795 121.285C300.723 120.723 302.008 118.635 301.767 116.707V116.386C301.446 114.458 299.598 112.771 297.59 112.771L288.353 112.61C288.353 112.61 288.112 111.888 288.032 111.486L295.904 106.667C297.59 105.622 298.394 103.293 297.59 101.446V101.205C296.707 99.3574 294.458 98.2329 292.53 98.7148L283.614 100.964C283.614 100.964 283.213 100.321 283.052 100L289.398 93.3333C290.763 91.8875 290.924 89.3976 289.639 87.8715L289.478 87.6305C288.273 86.0241 285.863 85.5422 284.096 86.506L276.064 91.004L275.261 90.2008L279.679 82.0883C280.643 80.3213 280.08 77.9116 278.554 76.7068L278.313 76.5462C276.707 75.3413 274.297 75.502 272.851 76.8674L266.185 83.2932C266.185 83.2932 265.542 82.8915 265.221 82.7309L267.39 73.7349C267.871 71.8072 266.747 69.5582 264.9 68.8353H264.659C262.811 67.9518 260.482 68.755 259.438 70.4417L254.699 78.3132C254.699 78.3132 253.976 78.0723 253.574 77.9919L253.333 68.755C253.333 66.747 251.647 64.8996 249.639 64.6586H249.317C247.309 64.3373 245.301 65.7028 244.739 67.6305L242.169 76.4658H241.044L238.394 67.6305C237.831 65.7028 235.743 64.4176 233.735 64.6586H233.414C231.406 64.9799 229.799 66.8273 229.719 68.8353L229.558 78.0723C229.076 78.1526 228.594 78.3132 228.193 78.4739L223.373 70.6827C222.329 68.996 220 68.2731 218.153 68.996H217.912C216.064 69.8795 215.02 72.1285 215.502 74.0562L217.751 82.9719C217.751 82.9719 217.108 83.3735 216.787 83.5341L210.04 77.2691C208.594 75.9036 206.104 75.8233 204.578 77.0281L204.337 77.1887C202.811 78.3935 202.249 80.8032 203.293 82.5703L207.791 90.6024L206.988 91.4056L198.875 87.0683C197.108 86.1044 194.699 86.6666 193.494 88.2731L193.333 88.514C192.128 90.1205 192.289 92.5301 193.655 93.9759L200.08 100.562C200.08 100.562 199.679 101.205 199.518 101.606L190.522 99.5181C188.594 99.0361 186.426 100.161 185.622 102.008V102.249C184.739 104.096 185.622 106.426 187.229 107.47L195.181 112.209C195.181 112.209 195.02 112.932 194.859 113.333L185.622 113.574C183.614 113.574 181.767 115.341 181.526 117.269V117.59C181.285 119.598 182.651 121.606 184.498 122.169L193.333 124.659V125.783L184.498 128.434C182.57 128.996 181.285 131.084 181.526 133.092V133.414C181.847 135.341 183.695 137.028 185.703 137.028L194.94 137.189C194.94 137.189 195.181 137.912 195.261 138.313L187.39 143.133C185.703 144.177 184.98 146.506 185.703 148.353V148.594C186.586 150.442 188.835 151.486 190.763 151.004L199.679 148.755C199.679 148.755 200.08 149.398 200.241 149.719L193.896 156.386C192.53 157.831 192.45 160.321 193.655 161.847L193.815 162.088C195.02 163.614 197.51 164.177 199.197 163.213L207.229 158.715L208.032 159.518L203.695 167.631C202.731 169.398 203.293 171.807 204.819 173.012L205.06 173.173C206.667 174.377 209.076 174.217 210.522 172.851L217.108 166.426C217.108 166.426 217.751 166.827 218.153 166.988L215.984 175.984C215.502 177.912 216.707 180.08 218.474 180.884H218.715C220.562 181.767 222.892 180.884 223.936 179.277L228.675 171.325C228.675 171.325 229.398 171.566 229.799 171.647L230.04 180.803C230.04 182.811 231.727 184.659 233.735 184.9H234.056C235.984 185.141 238.072 183.775 238.634 181.928L241.124 173.092H242.249L244.9 181.928C245.462 183.855 247.55 185.141 249.478 184.9H249.799C251.727 184.578 253.414 182.731 253.414 180.723L253.574 171.486C253.574 171.486 254.297 171.245 254.699 171.165L259.518 179.036C260.562 180.723 262.892 181.526 264.739 180.723H264.98C266.827 179.839 267.952 177.59 267.39 175.663L265.141 166.747C265.141 166.747 265.783 166.345 266.104 166.185L272.771 172.53C274.217 173.896 276.707 174.056 278.233 172.771L278.474 172.61C280 171.406 280.562 168.996 279.598 167.229L275.1 159.197L275.904 158.394L284.016 162.731C285.783 163.695 288.193 163.133 289.398 161.606L289.558 161.365C290.763 159.759 290.602 157.349 289.237 155.904L282.811 149.317C282.811 149.317 283.213 148.675 283.373 148.273L292.369 150.442C294.297 150.924 296.466 149.799 297.269 147.952V147.711C298.153 145.863 297.349 143.534 295.663 142.49L287.791 137.751C287.791 137.751 287.952 137.028 288.112 136.626L297.349 136.386C299.357 136.386 301.124 134.699 301.446 132.691V132.369C301.767 130.361 300.402 128.353 298.474 127.791L289.639 125.221V124.096L298.474 121.446L298.795 121.285ZM210.924 137.831C218.153 154.94 237.831 162.811 254.859 155.582C271.887 148.353 279.839 128.675 272.61 111.647C265.381 94.5381 245.703 86.6666 228.675 93.8956C211.647 101.124 203.695 120.803 210.924 137.831Z" fill="#9C91C5"/>
<path fill-rule="evenodd" clip-rule="evenodd" d="M315.582 47.9518C316.787 48.0321 317.992 47.1486 318.233 46.0241V45.8634C318.554 44.7389 317.831 43.3735 316.787 42.9718L311.646 40.9638V40.2409L317.028 39.1967C318.233 38.9558 319.116 37.8313 319.116 36.6265V36.4658C319.116 35.261 318.072 34.2168 316.867 34.0562L311.405 33.4136C311.405 33.4136 311.405 32.9317 311.325 32.771L316.305 30.3614C317.349 29.8795 317.992 28.514 317.59 27.3895V27.2289C317.189 26.1044 315.903 25.3012 314.779 25.4618L309.317 26.265C309.317 26.265 309.156 25.8634 308.996 25.6224L313.172 22.008C314.056 21.2048 314.297 19.759 313.654 18.7951V18.6345C312.931 17.5903 311.566 17.1887 310.442 17.6706L305.381 19.8393C305.381 19.8393 305.06 19.518 304.899 19.2771L308.032 14.6988C308.674 13.7349 308.514 12.2088 307.711 11.4056L307.55 11.2449C306.666 10.4417 305.221 10.3614 304.257 11.0843L299.919 14.4578C299.919 14.4578 299.518 14.1365 299.357 14.0562L301.205 8.8353C301.606 7.7108 301.044 6.34534 300 5.78309H299.839C298.795 5.14052 297.349 5.46181 296.626 6.42566L293.333 10.8433C293.333 10.8433 292.931 10.6827 292.691 10.6024L293.092 5.14052C293.172 3.9357 292.289 2.73088 291.164 2.48992H291.004C289.879 2.16864 288.514 2.89153 288.112 3.9357L286.104 9.07627H285.221L284.176 3.69474C283.936 2.48992 282.811 1.60639 281.606 1.68671H281.446C280.241 1.68671 279.197 2.73088 279.036 3.9357L278.393 9.39755C278.393 9.39755 277.911 9.39755 277.751 9.47787L275.341 4.49795C274.859 3.45378 273.494 2.81121 272.289 3.21281H272.128C271.004 3.61442 270.201 4.89956 270.361 6.02406L271.164 11.4859C271.164 11.4859 270.763 11.6465 270.522 11.8072L266.907 7.63048C266.104 6.74695 264.658 6.50599 263.614 7.14856H263.454C262.49 7.87145 262.008 9.31723 262.49 10.3614L264.658 15.4216L264.176 15.9036L259.598 12.8514C258.634 12.2088 257.108 12.3694 256.305 13.253V13.4136C255.421 14.2971 255.341 15.7429 256.064 16.7068L259.438 21.0441C259.438 21.0441 259.197 21.4457 259.036 21.6064L253.815 19.8393C252.691 19.4377 251.325 20 250.763 21.0441V21.2048C250.12 22.249 250.442 23.6947 251.405 24.4176L255.823 27.7108C255.823 27.7108 255.662 28.1124 255.582 28.3534L250.12 27.9518C248.915 27.8714 247.711 28.755 247.47 29.8795V30.0401C247.148 31.1646 247.871 32.5301 248.996 32.9317L254.136 34.9397V35.6626L248.755 36.7068C247.55 36.9478 246.666 38.0722 246.747 39.2771V39.4377C246.747 40.6425 247.791 41.6867 248.996 41.8474L254.458 42.4899C254.458 42.4899 254.458 42.9718 254.538 43.2128L249.558 45.6224C248.514 46.1044 247.871 47.4698 248.273 48.5943V48.755C248.674 49.8795 249.96 50.6827 251.084 50.522L256.546 49.7188C256.546 49.7188 256.707 50.1204 256.787 50.3614L252.61 53.9759C251.727 54.7791 251.486 56.2249 252.128 57.1887V57.3494C252.851 58.3132 254.297 58.7951 255.341 58.3132L260.401 56.1445C260.401 56.1445 260.723 56.4658 260.883 56.7068L257.831 61.2851C257.189 62.249 257.349 63.7751 258.233 64.5783L258.393 64.7389C259.277 65.5421 260.723 65.6224 261.687 64.8996L266.024 61.4457C266.024 61.4457 266.425 61.6867 266.586 61.8473L264.819 67.0682C264.417 68.1927 264.98 69.5582 266.024 70.1204H266.185C267.229 70.763 268.674 70.4417 269.397 69.4779L272.691 65.0602C272.691 65.0602 273.092 65.2208 273.333 65.3012L272.931 70.763C272.851 71.9678 273.735 73.1727 274.859 73.4136H275.02C276.144 73.7349 277.51 73.012 277.911 71.8875L279.919 66.747H280.642L281.687 72.1285C281.927 73.253 283.052 74.2168 284.257 74.1365H284.417C285.622 74.1365 286.666 73.0923 286.827 71.8875L287.47 66.4257C287.47 66.4257 287.952 66.4257 288.112 66.3453L290.522 71.3253C291.004 72.3694 292.369 73.012 293.494 72.6104H293.654C294.779 72.2088 295.582 71.004 295.421 69.7992L294.618 64.3373C294.618 64.3373 295.02 64.1767 295.261 64.0963L298.875 68.2731C299.678 69.1566 301.124 69.3976 302.088 68.755H302.249C303.213 68.0321 303.695 66.5863 303.213 65.5421L301.044 60.4819C301.044 60.4819 301.365 60.1606 301.606 60L306.185 63.1325C307.148 63.7751 308.674 63.6144 309.478 62.7309V62.5702C310.442 61.6867 310.442 60.2409 309.719 59.2771L306.265 54.9397C306.265 54.9397 306.506 54.6184 306.666 54.3775L311.887 56.2249C313.012 56.6265 314.377 56.0642 314.94 55.02V54.8594C315.582 53.8152 315.261 52.3694 314.297 51.6465L309.879 48.3534C309.879 48.3534 310.04 47.9518 310.12 47.7108L315.582 48.1124V47.9518ZM262.972 38.6345C263.454 49.6385 272.691 58.2329 283.775 57.8313C294.779 57.3494 303.373 48.0321 302.972 37.0281C302.49 26.0241 293.172 17.4297 282.168 17.8313C271.164 18.3132 262.57 27.5502 262.972 38.6345Z" fill="#9C91C5"/>
</g>
</svg>
