<svg width="639" height="354" viewBox="0 0 639 354" fill="none" xmlns="http://www.w3.org/2000/svg">
<g opacity="0.2">
<path d="M-7 33.085L223.851 346.145L160.716 321.351L196.92 356.449L90.8073 335.117L139.993 390.58L68.5526 399.838L158.619 434.935L31.3005 446.366L172.085 469.067L124.431 510.362L198.936 492.814L134.833 551.739L578.151 546.023L467.039 453.611L637.739 461.822L445.269 387.441L637.739 295.511L456.638 336.807L619.113 165.345L392.535 308.954L441.156 225.236L356.25 296.558L422.53 0L275.537 273.776L-7 33.085Z" fill="#9C91C5"/>
<line y1="-0.5" x2="111.696" y2="-0.5" transform="matrix(-0.248183 0.968713 0.968713 0.248183 401.922 108.133)" stroke="white"/>
<line y1="-0.5" x2="56.9232" y2="-0.5" transform="matrix(0.964276 -0.264899 -0.264899 -0.964276 583.109 269.867)" stroke="white"/>
</g>
</svg>
